<svg width="19" height="18" viewBox="0 0 19 18" fill="none" xmlns="http://www.w3.org/2000/svg">
<g clip-path="url(#clip0_319_240)">
<path d="M7.68626 0.185853C8.00413 0.11994 8.322 0.0730692 8.63548 0.04231C8.95775 0.0115508 9.27708 -0.00309647 9.59202 -0.000167024C9.76927 0.0012977 9.91136 0.146305 9.90989 0.323537C9.90843 0.459756 9.822 0.57547 9.70189 0.620876C8.36155 1.14818 7.28929 2.13101 6.63157 3.34819C5.98411 4.54487 5.73802 5.96712 6.03245 7.40255L6.03392 7.4128C6.36937 9.03279 7.32737 10.3642 8.60911 11.2079C9.88939 12.0516 11.4905 12.406 13.1106 12.075L13.1208 12.0736C14.2868 11.8319 15.302 11.2694 16.0945 10.4946C16.9148 9.69338 17.4949 8.66661 17.7541 7.5417C17.7937 7.36886 17.9665 7.26194 18.1379 7.30148C18.2683 7.33224 18.362 7.4377 18.3826 7.56221C18.7693 9.93506 18.1848 12.2596 16.9089 14.111C15.6389 15.9536 13.6819 17.329 11.3161 17.8153C8.88157 18.3162 6.47484 17.7831 4.5515 16.5175C2.62669 15.2476 1.18675 13.2483 0.685772 10.8139C0.196514 8.43665 0.693096 6.08576 1.89573 4.18602C3.10423 2.28041 5.02318 0.825938 7.37132 0.25616C7.41673 0.244442 7.46946 0.232724 7.52659 0.219542H7.52806L7.68626 0.185853Z" fill="#FFE483"/>
</g>
<defs>
<clipPath id="clip0_319_240">
<rect width="18" height="18" fill="white" transform="translate(0.5)"/>
</clipPath>
</defs>
</svg>
