<svg width="19" height="18" viewBox="0 0 19 18" fill="none" xmlns="http://www.w3.org/2000/svg">
<g clip-path="url(#clip0_319_210)">
<path d="M9.49999 12.9765C11.6961 12.9765 13.4764 11.1961 13.4764 9C13.4764 6.80387 11.6961 5.02354 9.49999 5.02354C7.30385 5.02354 5.52353 6.80387 5.52353 9C5.52353 11.1961 7.30385 12.9765 9.49999 12.9765Z" fill="#EAB809"/>
<path d="M9.50001 13.6267C6.94888 13.6267 4.87335 11.5512 4.87335 9.00009C4.87335 6.44896 6.94888 4.37343 9.50001 4.37343C12.0511 4.37343 14.1267 6.44896 14.1267 9.00009C14.1267 11.5512 12.0511 13.6267 9.50001 13.6267ZM9.50001 5.67374C7.66592 5.67374 6.17375 7.16591 6.17375 9C6.17375 10.8341 7.66592 12.3263 9.50001 12.3263C11.3341 12.3263 12.8263 10.8341 12.8263 9C12.8263 7.16591 11.3341 5.67374 9.50001 5.67374Z" fill="#EAB809"/>
<path d="M9.49999 3.41442C9.14091 3.41442 8.84979 3.12331 8.84979 2.76422V0.650201C8.84979 0.291117 9.14091 0 9.49999 0C9.85908 0 10.1502 0.291117 10.1502 0.650201V2.76422C10.1502 3.12331 9.85908 3.41442 9.49999 3.41442Z" fill="#EAB809"/>
<path d="M9.49999 18C9.14091 18 8.84979 17.7089 8.84979 17.3498V15.2358C8.84979 14.8767 9.14091 14.5856 9.49999 14.5856C9.85908 14.5856 10.1502 14.8767 10.1502 15.2358V17.3498C10.1502 17.709 9.85908 18 9.49999 18Z" fill="#EAB809"/>
<path d="M17.8498 9.6502H15.7358C15.3767 9.6502 15.0856 9.35908 15.0856 8.99999C15.0856 8.64091 15.3767 8.34979 15.7358 8.34979H17.8498C18.2089 8.34979 18.5 8.64091 18.5 8.99999C18.5 9.35908 18.209 9.6502 17.8498 9.6502Z" fill="#EAB809"/>
<path d="M3.26422 9.6502H1.1502C0.791117 9.6502 0.5 9.35908 0.5 8.99999C0.5 8.64091 0.791117 8.34979 1.1502 8.34979H3.26422C3.62331 8.34979 3.91442 8.64091 3.91442 8.99999C3.91442 9.35908 3.62331 9.6502 3.26422 9.6502Z" fill="#EAB809"/>
<path d="M13.9094 5.2408C13.743 5.2408 13.5766 5.17734 13.4497 5.05034C13.1957 4.79641 13.1957 4.3847 13.4497 4.13086L14.9445 2.63609C15.1984 2.38217 15.6101 2.38208 15.864 2.63609C16.1179 2.89002 16.1179 3.30173 15.864 3.55557L14.3691 5.05034C14.2422 5.17734 14.0758 5.2408 13.9094 5.2408Z" fill="#EAB809"/>
<path d="M3.59574 15.5545C3.42937 15.5545 3.26292 15.491 3.136 15.364C2.88208 15.1101 2.88208 14.6984 3.136 14.4445L4.63086 12.9497C4.88478 12.6958 5.29649 12.6958 5.55033 12.9497C5.80425 13.2036 5.80425 13.6153 5.55033 13.8691L4.05547 15.364C3.92855 15.491 3.76219 15.5545 3.59574 15.5545Z" fill="#EAB809"/>
<path d="M15.4042 15.5545C15.2378 15.5545 15.0713 15.491 14.9444 15.364L13.4496 13.8691C13.1956 13.6152 13.1956 13.2035 13.4496 12.9497C13.7035 12.6958 14.1152 12.6958 14.369 12.9497L15.8639 14.4445C16.1178 14.6985 16.1178 15.1102 15.8639 15.364C15.737 15.491 15.5706 15.5545 15.4042 15.5545Z" fill="#EAB809"/>
<path d="M5.09059 5.2408C4.92423 5.2408 4.75778 5.17734 4.63086 5.05034L3.136 3.55557C2.88208 3.30164 2.88208 2.89002 3.136 2.63609C3.38993 2.38217 3.80163 2.38208 4.05547 2.63609L5.55033 4.13086C5.80425 4.38479 5.80425 4.79641 5.55033 5.05034C5.42341 5.17734 5.25704 5.2408 5.09059 5.2408Z" fill="#EAB809"/>
</g>
<defs>
<clipPath id="clip0_319_210">
<rect width="18" height="18" fill="white" transform="translate(0.5)"/>
</clipPath>
</defs>
</svg>
